<svg xmlns="http://www.w3.org/2000/svg" viewBox="0 0 77.28 36.84"><defs><style>.cls-1{fill:#f7f7f2;}</style></defs><title>fittoLogoLight</title><g id="Capa_2" data-name="Capa 2"><g id="Capa_1-2" data-name="Capa 1"><path class="cls-1" d="M64.06,36.62c-4.49-.9-7.62-3.55-8.65-8.26a22.39,22.39,0,0,1,1-11.58,33.4,33.4,0,0,1,3.69-8c3.18-4.88,9.37-4.71,12.61.14a29.1,29.1,0,0,1,4.54,14.72c.24,3.77-.25,7.23-3.11,10a10.81,10.81,0,0,1-5.55,3A11.8,11.8,0,0,1,64.06,36.62ZM65,22.69c-2.76,0-4.38,1.73-4.38,4.65A4.18,4.18,0,0,0,65,31.74c2.68,0,4.41-1.83,4.4-4.62A4.17,4.17,0,0,0,65,22.69Z"/><path class="cls-1" d="M0,13.57H2.9c0-1.45-.06-2.84,0-4.23a24.33,24.33,0,0,1,.46-4.53C4.13,1.75,6.62.08,10.36,0A13.79,13.79,0,0,1,15,.72V5.54a17.56,17.56,0,0,0-2.55-.41,2.43,2.43,0,0,0-2.8,2.43c-.12,2,0,4,0,6h4.06v5.22H9.56V36.2H2.91V18.77H0Z"/><path class="cls-1" d="M44.15,18.76H41v-5.2h3.14V6.05h6.65v7.5h3.13v5.22H50.79V36.21H44.15Z"/><path class="cls-1" d="M26.4,13.55h3.12V6.05h6.64v7.49h3.16v5.21H36.19V36.2H29.54V18.77H26.4Z"/><path class="cls-1" d="M23.75,36.21H17.19V13.58h6.56Z"/><path class="cls-1" d="M24.35,4.29A3.89,3.89,0,1,1,20.46.41,3.9,3.9,0,0,1,24.35,4.29Z"/></g></g></svg>